<?xml version="1.0" encoding="UTF-8"?>
<svg xmlns="http://www.w3.org/2000/svg" xmlns:xlink="http://www.w3.org/1999/xlink" width="2836" height="2836" viewBox="0 0 2836 2836">
<path fill-rule="evenodd" fill="rgb(100%, 100%, 100%)" fill-opacity="1" d="M 0.882812 0.46875 L 2835.53125 0.46875 L 2835.53125 2835.117188 L 0.882812 2835.117188 L 0.882812 0.46875 "/>
<path fill-rule="nonzero" fill="rgb(13.729858%, 12.159729%, 12.548828%)" fill-opacity="1" d="M 878.382812 1320.421875 L 1958.03125 1320.421875 L 1958.03125 955.371094 C 1958.03125 943.210938 1963.019531 932.121094 1971.070312 924.039062 L 1971.140625 923.980469 C 1979.21875 915.929688 1990.308594 910.941406 2002.46875 910.941406 L 2154.621094 910.941406 C 2166.78125 910.941406 2177.871094 915.929688 2185.949219 923.980469 L 2186.011719 924.039062 C 2194.058594 932.121094 2199.050781 943.210938 2199.050781 955.371094 L 2199.050781 1027.75 C 2200.941406 1027.46875 2202.878906 1027.320312 2204.851562 1027.320312 L 2330.550781 1027.320312 C 2341.46875 1027.320312 2351.390625 1031.78125 2358.558594 1038.960938 C 2365.738281 1046.140625 2370.199219 1056.058594 2370.199219 1066.980469 L 2370.199219 1320.421875 L 2485.550781 1320.421875 C 2494.890625 1320.421875 2502.480469 1328 2502.480469 1337.351562 L 2502.480469 1498.238281 C 2502.480469 1507.589844 2494.890625 1515.171875 2485.550781 1515.171875 L 2370.199219 1515.171875 L 2370.199219 1768.609375 C 2370.199219 1779.53125 2365.738281 1789.449219 2358.558594 1796.628906 C 2351.390625 1803.808594 2341.46875 1808.261719 2330.550781 1808.261719 L 2204.851562 1808.261719 C 2202.878906 1808.261719 2200.941406 1808.121094 2199.050781 1807.839844 L 2199.050781 1880.21875 C 2199.050781 1892.378906 2194.058594 1903.46875 2186.011719 1911.546875 L 2185.949219 1911.613281 C 2177.871094 1919.660156 2166.78125 1924.652344 2154.621094 1924.652344 L 2002.46875 1924.652344 C 1990.308594 1924.652344 1979.21875 1919.660156 1971.140625 1911.613281 L 1971.070312 1911.546875 C 1963.019531 1903.46875 1958.03125 1892.378906 1958.03125 1880.21875 L 1958.03125 1515.171875 L 878.382812 1515.171875 L 878.382812 1880.21875 C 878.382812 1892.378906 873.386719 1903.46875 865.339844 1911.546875 L 865.273438 1911.613281 C 857.195312 1919.660156 846.105469 1924.652344 833.945312 1924.652344 L 681.792969 1924.652344 C 669.632812 1924.652344 658.542969 1919.660156 650.464844 1911.613281 L 650.398438 1911.546875 C 642.351562 1903.46875 637.359375 1892.378906 637.359375 1880.21875 L 637.359375 1807.839844 C 635.464844 1808.121094 633.53125 1808.261719 631.5625 1808.261719 L 505.863281 1808.261719 C 494.941406 1808.261719 485.023438 1803.808594 477.847656 1796.628906 C 470.667969 1789.449219 466.210938 1779.53125 466.210938 1768.609375 L 466.210938 1515.171875 L 350.863281 1515.171875 C 341.515625 1515.171875 333.9375 1507.589844 333.9375 1498.238281 L 333.9375 1337.351562 C 333.9375 1328 341.515625 1320.421875 350.863281 1320.421875 L 466.210938 1320.421875 L 466.210938 1066.980469 C 466.210938 1056.058594 470.667969 1046.140625 477.847656 1038.960938 C 485.023438 1031.78125 494.941406 1027.320312 505.863281 1027.320312 L 631.5625 1027.320312 C 633.53125 1027.320312 635.464844 1027.46875 637.359375 1027.75 L 637.359375 955.371094 C 637.359375 943.210938 642.351562 932.121094 650.398438 924.039062 L 650.464844 923.980469 C 658.542969 915.929688 669.632812 910.941406 681.792969 910.941406 L 833.945312 910.941406 C 846.105469 910.941406 857.195312 915.929688 865.273438 923.980469 L 865.339844 924.039062 C 873.386719 932.121094 878.382812 943.210938 878.382812 955.371094 Z M 2370.199219 1354.28125 L 2370.199219 1481.308594 L 2468.621094 1481.308594 L 2468.621094 1354.28125 Z M 466.210938 1481.308594 L 466.210938 1354.28125 L 367.796875 1354.28125 L 367.796875 1481.308594 Z M 2199.050781 1066.910156 L 2199.050781 1768.679688 C 2199.070312 1770.230469 2199.730469 1771.648438 2200.769531 1772.691406 C 2201.828125 1773.75 2203.269531 1774.410156 2204.851562 1774.410156 L 2330.550781 1774.410156 C 2332.121094 1774.410156 2333.570312 1773.75 2334.621094 1772.691406 C 2335.679688 1771.628906 2336.339844 1770.191406 2336.339844 1768.609375 L 2336.339844 1066.980469 C 2336.339844 1065.398438 2335.679688 1063.960938 2334.621094 1062.898438 C 2333.570312 1061.839844 2332.121094 1061.179688 2330.550781 1061.179688 L 2204.851562 1061.179688 C 2203.269531 1061.179688 2201.828125 1061.839844 2200.769531 1062.898438 C 2199.730469 1063.941406 2199.070312 1065.359375 2199.050781 1066.910156 Z M 1991.890625 1337.351562 L 1991.890625 1880.21875 C 1991.890625 1883.152344 1993.058594 1885.789062 1994.941406 1887.675781 L 1995.011719 1887.738281 C 1996.890625 1889.625 1999.53125 1890.796875 2002.46875 1890.796875 L 2154.621094 1890.796875 C 2157.550781 1890.796875 2160.191406 1889.625 2162.070312 1887.738281 L 2162.140625 1887.675781 C 2164.019531 1885.789062 2165.191406 1883.152344 2165.191406 1880.21875 L 2165.191406 955.371094 C 2165.191406 952.441406 2164.019531 949.800781 2162.140625 947.921875 L 2162.070312 947.851562 C 2160.191406 945.96875 2157.550781 944.789062 2154.621094 944.789062 L 2002.46875 944.789062 C 1999.53125 944.789062 1996.890625 945.96875 1995.011719 947.851562 L 1994.941406 947.921875 C 1993.058594 949.800781 1991.890625 952.441406 1991.890625 955.371094 Z M 637.359375 1768.679688 L 637.359375 1066.910156 C 637.339844 1065.359375 636.683594 1063.941406 635.640625 1062.898438 C 634.585938 1061.839844 633.140625 1061.179688 631.5625 1061.179688 L 505.863281 1061.179688 C 504.289062 1061.179688 502.84375 1061.839844 501.785156 1062.898438 C 500.730469 1063.960938 500.070312 1065.398438 500.070312 1066.980469 L 500.070312 1768.609375 C 500.070312 1770.191406 500.730469 1771.628906 501.785156 1772.691406 C 502.84375 1773.75 504.289062 1774.410156 505.863281 1774.410156 L 631.5625 1774.410156 C 633.140625 1774.410156 634.585938 1773.75 635.640625 1772.691406 C 636.683594 1771.648438 637.339844 1770.230469 637.359375 1768.679688 Z M 844.523438 1498.238281 L 844.523438 955.371094 C 844.523438 952.441406 843.351562 949.800781 841.46875 947.921875 L 841.402344 947.851562 C 839.519531 945.96875 836.878906 944.789062 833.945312 944.789062 L 681.792969 944.789062 C 678.859375 944.789062 676.222656 945.96875 674.339844 947.851562 L 674.269531 947.921875 C 672.386719 949.800781 671.21875 952.441406 671.21875 955.371094 L 671.21875 1880.21875 C 671.21875 1883.152344 672.386719 1885.789062 674.269531 1887.675781 L 674.339844 1887.738281 C 676.222656 1889.625 678.859375 1890.796875 681.792969 1890.796875 L 833.945312 1890.796875 C 836.878906 1890.796875 839.519531 1889.625 841.402344 1887.738281 L 841.46875 1887.675781 C 843.351562 1885.789062 844.523438 1883.152344 844.523438 1880.21875 Z M 1958.03125 1354.28125 L 878.382812 1354.28125 L 878.382812 1481.308594 L 1958.03125 1481.308594 L 1958.03125 1354.28125 "/>
</svg>
